<mxfile host="app.diagrams.net" modified="2023-05-10T11:09:25.716Z" agent="Mozilla/5.0 (Macintosh; Intel Mac OS X 10_15_7) AppleWebKit/537.36 (KHTML, like Gecko) Chrome/112.0.0.0 Safari/537.36" version="21.2.9" etag="DFLdF2k625aF8EtGGShQ" type="github">
  <diagram name="第 1 页" id="U2wP8DasRZFaQ3ZM8-xF">
    <mxGraphModel>
      <root>
        <mxCell id="0" />
        <mxCell id="1" parent="0" />
      </root>
    </mxGraphModel>
  </diagram>
</mxfile>
